psfsetkeys.ufo
<glyph name="LftParen" format="2">
  <advance width="840"/>
  <unicode hex="0028"/>
  <outline>
    <contour>
      <point x="899" y="1624" type="line"/>
      <point x="586" y="1430"/>
      <point x="317" y="1081"/>
      <point x="209" y="649" type="curve" smooth="yes"/>
      <point x="177" y="521"/>
      <point x="161" y="397"/>
      <point x="161" y="277" type="curve" smooth="yes"/>
      <point x="161" y="20"/>
      <point x="234" y="-214"/>
      <point x="373" y="-406" type="curve"/>
      <point x="565" y="-198" type="line"/>
      <point x="479" y="-42"/>
      <point x="436" y="130"/>
      <point x="436" y="315" type="curve" smooth="yes"/>
      <point x="436" y="422"/>
      <point x="450" y="534"/>
      <point x="479" y="649" type="curve" smooth="yes"/>
      <point x="559" y="972"/>
      <point x="715" y="1216"/>
      <point x="966" y="1411" type="curve"/>
    </contour>
  </outline>
</glyph>
<glyph name="Solidus" format="2">
  <advance width="1060"/>
  <unicode hex="002F"/>
  <outline>
    <contour>
      <point x="1164" y="1584" type="line"/>
      <point x="-120" y="-243" type="line"/>
      <point x="129" y="-243" type="line"/>
      <point x="1414" y="1584" type="line"/>
    </contour>
  </outline>
</glyph>
<glyph name="DigitTwo" format="2">
  <advance width="1180"/>
  <unicode hex="0032"/>
  <anchor x="515" y="-100" name="L"/>
  <anchor x="882" y="1530" name="U"/>
  <outline>
    <contour>
      <point x="1094" y="257" type="line"/>
      <point x="1010" y="244"/>
      <point x="942" y="243"/>
      <point x="745" y="243" type="curve" smooth="yes"/>
      <point x="480" y="243" type="line"/>
      <point x="875" y="492"/>
      <point x="1255" y="786"/>
      <point x="1255" y="1125" type="curve" smooth="yes"/>
      <point x="1255" y="1324"/>
      <point x="1106" y="1470"/>
      <point x="846" y="1470" type="curve" smooth="yes"/>
      <point x="667" y="1470"/>
      <point x="472" y="1388"/>
      <point x="363" y="1277" type="curve"/>
      <point x="374" y="1039" type="line"/>
      <point x="489" y="1146"/>
      <point x="646" y="1223"/>
      <point x="762" y="1223" type="curve" smooth="yes"/>
      <point x="890" y="1223"/>
      <point x="949" y="1138"/>
      <point x="949" y="1040" type="curve" smooth="yes"/>
      <point x="949" y="805"/>
      <point x="500" y="440"/>
      <point x="104" y="218" type="curve"/>
      <point x="50" y="0" type="line"/>
      <point x="1030" y="0" type="line"/>
    </contour>
  </outline>
</glyph>
<glyph name="DigitThree" format="2">
  <advance width="1180"/>
  <unicode hex="0033"/>
  <anchor x="515" y="-100" name="L"/>
  <anchor x="922" y="1530" name="U"/>
  <outline>
    <contour>
      <point x="548" y="876" type="line"/>
      <point x="489" y="639" type="line"/>
      <point x="579" y="639" type="line" smooth="yes"/>
      <point x="778" y="639"/>
      <point x="880" y="555"/>
      <point x="880" y="452" type="curve" smooth="yes"/>
      <point x="880" y="295"/>
      <point x="726" y="208"/>
      <point x="576" y="208" type="curve" smooth="yes"/>
      <point x="386" y="208"/>
      <point x="253" y="279"/>
      <point x="174" y="401" type="curve"/>
      <point x="72" y="129" type="line"/>
      <point x="162" y="32"/>
      <point x="321" y="-25"/>
      <point x="518" y="-25" type="curve" smooth="yes"/>
      <point x="867" y="-25"/>
      <point x="1163" y="169"/>
      <point x="1163" y="471" type="curve" smooth="yes"/>
      <point x="1163" y="644"/>
      <point x="999" y="751"/>
      <point x="882" y="772" type="curve"/>
      <point x="1076" y="817"/>
      <point x="1296" y="963"/>
      <point x="1296" y="1172" type="curve" smooth="yes"/>
      <point x="1296" y="1348"/>
      <point x="1112" y="1470"/>
      <point x="856" y="1470" type="curve" smooth="yes"/>
      <point x="689" y="1470"/>
      <point x="529" y="1402"/>
      <point x="427" y="1312" type="curve"/>
      <point x="405" y="1084" type="line"/>
      <point x="546" y="1199"/>
      <point x="664" y="1237"/>
      <point x="818" y="1237" type="curve" smooth="yes"/>
      <point x="928" y="1237"/>
      <point x="1001" y="1178"/>
      <point x="1001" y="1100" type="curve" smooth="yes"/>
      <point x="1001" y="975"/>
      <point x="819" y="876"/>
      <point x="638" y="876" type="curve" smooth="yes"/>
    </contour>
  </outline>
</glyph>
<glyph name="DigitFour" format="2">
  <advance width="1180"/>
  <unicode hex="0034"/>
  <anchor x="522" y="-100" name="L"/>
  <anchor x="929" y="1530" name="U"/>
  <outline>
    <contour>
      <point x="1180" y="342" type="line"/>
      <point x="1235" y="564" type="line"/>
      <point x="1075" y="564" type="line"/>
      <point x="1295" y="1445" type="line"/>
      <point x="945" y="1445" type="line"/>
      <point x="120" y="564" type="line"/>
      <point x="65" y="342" type="line"/>
      <point x="755" y="342" type="line"/>
      <point x="670" y="0" type="line"/>
      <point x="935" y="0" type="line"/>
      <point x="1020" y="342" type="line"/>
    </contour>
    <contour>
      <point x="954" y="1143" type="line"/>
      <point x="810" y="564" type="line"/>
      <point x="385" y="564" type="line"/>
    </contour>
  </outline>
</glyph>
<glyph name="QstnMrk" format="2">
  <advance width="1070"/>
  <unicode hex="003F"/>
  <outline>
    <contour>
      <point x="703" y="495" type="line"/>
      <point x="745" y="664"/>
      <point x="787" y="792"/>
      <point x="931" y="933" type="curve" smooth="yes"/>
      <point x="1034" y="1033"/>
      <point x="1143" y="1118"/>
      <point x="1143" y="1256" type="curve" smooth="yes"/>
      <point x="1143" y="1404"/>
      <point x="1022" y="1525"/>
      <point x="800" y="1525" type="curve" smooth="yes"/>
      <point x="675" y="1525"/>
      <point x="508" y="1455"/>
      <point x="427" y="1393" type="curve"/>
      <point x="413" y="1156" type="line"/>
      <point x="508" y="1235"/>
      <point x="621" y="1282"/>
      <point x="721" y="1282" type="curve" smooth="yes"/>
      <point x="811" y="1282"/>
      <point x="846" y="1238"/>
      <point x="846" y="1189" type="curve" smooth="yes"/>
      <point x="846" y="1109"/>
      <point x="760" y="1086"/>
      <point x="650" y="956" type="curve" smooth="yes"/>
      <point x="564" y="855"/>
      <point x="490" y="703"/>
      <point x="438" y="495" type="curve"/>
    </contour>
    <contour>
      <point x="306" y="116" type="curve" smooth="yes"/>
      <point x="306" y="35"/>
      <point x="367" y="-25"/>
      <point x="453" y="-25" type="curve" smooth="yes"/>
      <point x="571" y="-25"/>
      <point x="666" y="71"/>
      <point x="666" y="181" type="curve" smooth="yes"/>
      <point x="666" y="261"/>
      <point x="607" y="322"/>
      <point x="520" y="322" type="curve" smooth="yes"/>
      <point x="403" y="322"/>
      <point x="306" y="226"/>
    </contour>
  </outline>
</glyph>
<glyph name="AtSgn" format="2">
  <advance width="1693"/>
  <unicode hex="0040"/>
  <outline>
    <contour>
      <point x="1082" y="10" type="line"/>
      <point x="1008" y="-34"/>
      <point x="933" y="-59"/>
      <point x="840" y="-59" type="curve" smooth="yes"/>
      <point x="540" y="-59"/>
      <point x="362" y="143"/>
      <point x="362" y="434" type="curve" smooth="yes"/>
      <point x="362" y="498"/>
      <point x="371" y="567"/>
      <point x="389" y="639" type="curve" smooth="yes"/>
      <point x="480" y="1003"/>
      <point x="783" y="1228"/>
      <point x="1121" y="1228" type="curve" smooth="yes"/>
      <point x="1424" y="1228"/>
      <point x="1581" y="1069"/>
      <point x="1581" y="813" type="curve" smooth="yes"/>
      <point x="1581" y="753"/>
      <point x="1572" y="688"/>
      <point x="1555" y="619" type="curve" smooth="yes"/>
      <point x="1506" y="418"/>
      <point x="1400" y="331"/>
      <point x="1340" y="331" type="curve" smooth="yes"/>
      <point x="1307" y="331"/>
      <point x="1287" y="362"/>
      <point x="1287" y="432" type="curve" smooth="yes"/>
      <point x="1287" y="482"/>
      <point x="1297" y="551"/>
      <point x="1320" y="643" type="curve" smooth="yes"/>
      <point x="1401" y="970" type="line"/>
      <point x="1323" y="1005"/>
      <point x="1182" y="1030"/>
      <point x="1101" y="1030" type="curve" smooth="yes"/>
      <point x="937" y="1030"/>
      <point x="822" y="974"/>
      <point x="710" y="862" type="curve" smooth="yes"/>
      <point x="637" y="789"/>
      <point x="569" y="677"/>
      <point x="539" y="556" type="curve" smooth="yes"/>
      <point x="529" y="518"/>
      <point x="525" y="481"/>
      <point x="525" y="447" type="curve" smooth="yes"/>
      <point x="525" y="279"/>
      <point x="629" y="161"/>
      <point x="740" y="161" type="curve" smooth="yes"/>
      <point x="867" y="161"/>
      <point x="1034" y="328"/>
      <point x="1117" y="450" type="curve"/>
      <point x="1112" y="422"/>
      <point x="1110" y="394"/>
      <point x="1110" y="367" type="curve" smooth="yes"/>
      <point x="1110" y="252"/>
      <point x="1157" y="155"/>
      <point x="1291" y="155" type="curve" smooth="yes"/>
      <point x="1454" y="155"/>
      <point x="1674" y="332"/>
      <point x="1752" y="646" type="curve" smooth="yes"/>
      <point x="1768" y="710"/>
      <point x="1775" y="771"/>
      <point x="1775" y="829" type="curve" smooth="yes"/>
      <point x="1775" y="1169"/>
      <point x="1520" y="1411"/>
      <point x="1156" y="1411" type="curve" smooth="yes"/>
      <point x="731" y="1411"/>
      <point x="322" y="1180"/>
      <point x="183" y="624" type="curve" smooth="yes"/>
      <point x="163" y="544"/>
      <point x="154" y="469"/>
      <point x="154" y="398" type="curve" smooth="yes"/>
      <point x="154" y="-1"/>
      <point x="448" y="-243"/>
      <point x="789" y="-243" type="curve" smooth="yes"/>
      <point x="924" y="-243"/>
      <point x="1076" y="-206"/>
      <point x="1193" y="-137" type="curve"/>
    </contour>
    <contour>
      <point x="1135" y="703" type="line"/>
      <point x="1069" y="566"/>
      <point x="899" y="346"/>
      <point x="809" y="346" type="curve" smooth="yes"/>
      <point x="757" y="346"/>
      <point x="726" y="386"/>
      <point x="726" y="463" type="curve" smooth="yes"/>
      <point x="726" y="493"/>
      <point x="731" y="528"/>
      <point x="741" y="569" type="curve" smooth="yes"/>
      <point x="760" y="645"/>
      <point x="803" y="731"/>
      <point x="853" y="778" type="curve" smooth="yes"/>
      <point x="901" y="824"/>
      <point x="957" y="846"/>
      <point x="1025" y="846" type="curve" smooth="yes"/>
      <point x="1099" y="846"/>
      <point x="1133" y="828"/>
      <point x="1162" y="812" type="curve"/>
    </contour>
  </outline>
</glyph>
<glyph name="LtnCapB" format="2">
  <advance width="1367"/>
  <unicode hex="0042"/>
  <anchor x="585" y="-100" name="L"/>
  <anchor x="992" y="1530" name="U"/>
  <outline>
    <contour>
      <point x="698" y="1236" type="line"/>
      <point x="735" y="1237"/>
      <point x="791" y="1240"/>
      <point x="860" y="1240" type="curve" smooth="yes"/>
      <point x="1021" y="1240"/>
      <point x="1101" y="1179"/>
      <point x="1101" y="1087" type="curve" smooth="yes"/>
      <point x="1101" y="932"/>
      <point x="962" y="866"/>
      <point x="770" y="866" type="curve" smooth="yes"/>
      <point x="605" y="866" type="line"/>
    </contour>
    <contour>
      <point x="217" y="450" type="line"/>
      <point x="168" y="254"/>
      <point x="124" y="79"/>
      <point x="90" y="0" type="curve"/>
      <point x="161" y="-3"/>
      <point x="368" y="-10"/>
      <point x="598" y="-10" type="curve" smooth="yes"/>
      <point x="1055" y="-10"/>
      <point x="1298" y="206"/>
      <point x="1298" y="508" type="curve" smooth="yes"/>
      <point x="1298" y="673"/>
      <point x="1188" y="759"/>
      <point x="1072" y="792" type="curve"/>
      <point x="1254" y="848"/>
      <point x="1388" y="956"/>
      <point x="1388" y="1155" type="curve" smooth="yes"/>
      <point x="1388" y="1359"/>
      <point x="1181" y="1455"/>
      <point x="897" y="1455" type="curve" smooth="yes"/>
      <point x="704" y="1455"/>
      <point x="549" y="1451"/>
      <point x="450" y="1445" type="curve"/>
      <point x="445" y="1366"/>
      <point x="399" y="1182"/>
      <point x="351" y="990" type="curve" smooth="yes"/>
    </contour>
    <contour>
      <point x="552" y="651" type="line"/>
      <point x="745" y="651" type="line" smooth="yes"/>
      <point x="927" y="651"/>
      <point x="1019" y="577"/>
      <point x="1019" y="468" type="curve" smooth="yes"/>
      <point x="1019" y="295"/>
      <point x="879" y="213"/>
      <point x="675" y="213" type="curve" smooth="yes"/>
      <point x="575" y="213"/>
      <point x="476" y="216"/>
      <point x="444" y="218" type="curve"/>
    </contour>
  </outline>
</glyph>
<glyph name="LtnCapC" format="2">
  <advance width="1357"/>
  <unicode hex="0043"/>
  <anchor x="685" y="0" name="H"/>
  <anchor x="660" y="-100" name="L"/>
  <anchor x="1067" y="1530" name="U"/>
  <outline>
    <contour>
      <point x="1286" y="391" type="line"/>
      <point x="1149" y="280"/>
      <point x="966" y="218"/>
      <point x="816" y="218" type="curve" smooth="yes"/>
      <point x="594" y="218"/>
      <point x="472" y="349"/>
      <point x="472" y="588" type="curve" smooth="yes"/>
      <point x="472" y="922"/>
      <point x="690" y="1230"/>
      <point x="1039" y="1230" type="curve" smooth="yes"/>
      <point x="1170" y="1230"/>
      <point x="1298" y="1188"/>
      <point x="1385" y="1093" type="curve"/>
      <point x="1515" y="1331" type="line"/>
      <point x="1408" y="1418"/>
      <point x="1247" y="1470"/>
      <point x="1073" y="1470" type="curve" smooth="yes"/>
      <point x="545" y="1470"/>
      <point x="191" y="1032"/>
      <point x="191" y="544" type="curve" smooth="yes"/>
      <point x="191" y="210"/>
      <point x="404" y="-25"/>
      <point x="750" y="-25" type="curve" smooth="yes"/>
      <point x="921" y="-25"/>
      <point x="1124" y="27"/>
      <point x="1271" y="124" type="curve"/>
    </contour>
  </outline>
</glyph>
<glyph name="LtnCapF" format="2">
  <advance width="1180"/>
  <unicode hex="0046"/>
  <anchor x="545" y="-100" name="L"/>
  <anchor x="952" y="1530" name="U"/>
  <outline>
    <contour>
      <point x="602" y="851" type="line"/>
      <point x="693" y="1217" type="line"/>
      <point x="1333" y="1217" type="line"/>
      <point x="1390" y="1445" type="line"/>
      <point x="450" y="1445" type="line"/>
      <point x="445" y="1366"/>
      <point x="405" y="1205"/>
      <point x="356" y="1010" type="curve" smooth="yes"/>
      <point x="212" y="431" type="line" smooth="yes"/>
      <point x="163" y="236"/>
      <point x="123" y="79"/>
      <point x="90" y="0" type="curve"/>
      <point x="405" y="0" type="line"/>
      <point x="407" y="72"/>
      <point x="444" y="220"/>
      <point x="490" y="404" type="curve" smooth="yes"/>
      <point x="546" y="629" type="line"/>
      <point x="1101" y="629" type="line"/>
      <point x="1157" y="851" type="line"/>
    </contour>
  </outline>
</glyph>
<glyph name="LtnCapH" format="2">
  <advance width="1495"/>
  <unicode hex="0048"/>
  <anchor x="245" y="0" name="H"/>
  <anchor x="660" y="-100" name="L"/>
  <anchor x="1067" y="1530" name="U"/>
  <outline>
    <contour>
      <point x="1340" y="1445" type="line"/>
      <point x="1192" y="851" type="line"/>
      <point x="602" y="851" type="line"/>
      <point x="750" y="1445" type="line"/>
      <point x="450" y="1445" type="line"/>
      <point x="445" y="1366"/>
      <point x="408" y="1215"/>
      <point x="359" y="1020" type="curve" smooth="yes"/>
      <point x="211" y="426" type="line" smooth="yes"/>
      <point x="162" y="231"/>
      <point x="124" y="79"/>
      <point x="90" y="0" type="curve"/>
      <point x="90" y="0"/>
      <point x="390" y="0"/>
      <point x="390" y="0" type="curve"/>
      <point x="546" y="629" type="line"/>
      <point x="1136" y="629" type="line"/>
      <point x="980" y="0" type="line"/>
      <point x="980" y="0"/>
      <point x="1280" y="0"/>
      <point x="1280" y="0" type="curve"/>
      <point x="1284" y="79"/>
      <point x="1322" y="231"/>
      <point x="1371" y="426" type="curve" smooth="yes"/>
      <point x="1519" y="1020" type="line" smooth="yes"/>
      <point x="1567" y="1215"/>
      <point x="1605" y="1366"/>
      <point x="1640" y="1445" type="curve"/>
    </contour>
  </outline>
</glyph>
<glyph name="LtnCapN" format="2">
  <advance width="1525"/>
  <unicode hex="004E"/>
  <anchor x="1180" y="0" name="H"/>
  <anchor x="680" y="-100" name="L"/>
  <anchor x="1087" y="1530" name="U"/>
  <outline>
    <contour>
      <point x="506" y="1297" type="line"/>
      <point x="1035" y="0" type="line"/>
      <point x="1253" y="148" type="line"/>
      <point x="725" y="1445" type="line"/>
    </contour>
    <contour>
      <point x="1035" y="0" type="line"/>
      <point x="1305" y="0" type="line"/>
      <point x="1558" y="1015" type="line" smooth="yes"/>
      <point x="1606" y="1210"/>
      <point x="1646" y="1366"/>
      <point x="1680" y="1445" type="curve"/>
      <point x="1395" y="1445" type="line"/>
    </contour>
    <contour>
      <point x="725" y="1445" type="line"/>
      <point x="440" y="1445" type="line"/>
      <point x="434" y="1366"/>
      <point x="396" y="1210"/>
      <point x="348" y="1015" type="curve" smooth="yes"/>
      <point x="202" y="431" type="line" smooth="yes"/>
      <point x="153" y="236"/>
      <point x="113" y="79"/>
      <point x="80" y="0" type="curve"/>
      <point x="365" y="0" type="line"/>
    </contour>
  </outline>
</glyph>
<glyph name="LtnCapT" format="2">
  <advance width="1255"/>
  <unicode hex="0054"/>
  <anchor x="572" y="0" name="H"/>
  <anchor x="547" y="-100" name="L"/>
  <anchor x="954" y="1530" name="U"/>
  <outline>
    <contour>
      <point x="345" y="1445" type="line"/>
      <point x="283" y="1198" type="line"/>
      <point x="359" y="1215"/>
      <point x="439" y="1218"/>
      <point x="519" y="1218" type="curve" smooth="yes"/>
      <point x="731" y="1218" type="line"/>
      <point x="529" y="409" type="line" smooth="yes"/>
      <point x="483" y="224"/>
      <point x="443" y="75"/>
      <point x="408" y="0" type="curve"/>
      <point x="733" y="0" type="line"/>
      <point x="734" y="75"/>
      <point x="768" y="224"/>
      <point x="814" y="409" type="curve" smooth="yes"/>
      <point x="1016" y="1218" type="line"/>
      <point x="1232" y="1218" type="line" smooth="yes"/>
      <point x="1313" y="1218"/>
      <point x="1390" y="1215"/>
      <point x="1458" y="1198" type="curve"/>
      <point x="1520" y="1445" type="line"/>
    </contour>
  </outline>
</glyph>
<glyph name="LtnCapW" format="2">
  <advance width="2115"/>
  <unicode hex="0057"/>
  <anchor x="967" y="-100" name="L"/>
  <anchor x="1374" y="1530" name="U"/>
  <outline>
    <contour>
      <point x="1430" y="0" type="line"/>
      <point x="1595" y="0" type="line"/>
      <point x="2165" y="1084" type="line" smooth="yes"/>
      <point x="2266" y="1277"/>
      <point x="2318" y="1364"/>
      <point x="2370" y="1445" type="curve"/>
      <point x="2050" y="1445" type="line"/>
      <point x="1432" y="129" type="line"/>
    </contour>
    <contour>
      <point x="1470" y="1445" type="line"/>
      <point x="1220" y="1445" type="line"/>
      <point x="1257" y="1292" type="line"/>
      <point x="1280" y="0" type="line"/>
      <point x="1450" y="0" type="line"/>
      <point x="1492" y="129" type="line"/>
    </contour>
    <contour>
      <point x="540" y="0" type="line"/>
      <point x="705" y="0" type="line"/>
      <point x="1367" y="1292" type="line"/>
      <point x="1470" y="1445" type="line"/>
      <point x="1210" y="1445" type="line"/>
      <point x="542" y="129" type="line"/>
    </contour>
    <contour>
      <point x="630" y="1445" type="line"/>
      <point x="330" y="1445" type="line"/>
      <point x="341" y="1367"/>
      <point x="349" y="1273"/>
      <point x="355" y="1084" type="curve" smooth="yes"/>
      <point x="390" y="0" type="line"/>
      <point x="560" y="0" type="line"/>
      <point x="602" y="129" type="line"/>
    </contour>
  </outline>
</glyph>
<glyph name="LftSqrBrac" format="2">
  <advance width="830"/>
  <unicode hex="005B"/>
  <outline>
    <contour>
      <point x="553" y="-406" type="line"/>
      <point x="605" y="-198" type="line"/>
      <point x="365" y="-198" type="line"/>
      <point x="753" y="1376" type="line"/>
      <point x="993" y="1376" type="line"/>
      <point x="1044" y="1584" type="line"/>
      <point x="524" y="1584" type="line"/>
      <point x="33" y="-406" type="line"/>
    </contour>
  </outline>
</glyph>
<glyph name="LtnSmB" format="2">
  <advance width="1229"/>
  <unicode hex="0062"/>
  <anchor x="550" y="0" name="H"/>
  <anchor x="525" y="-100" name="L"/>
  <anchor x="1405" y="1000" name="R"/>
  <anchor x="958" y="1635" name="U"/>
  <outline>
    <contour>
      <point x="482" y="432" type="line"/>
      <point x="576" y="610"/>
      <point x="726" y="787"/>
      <point x="829" y="787" type="curve" smooth="yes"/>
      <point x="911" y="787"/>
      <point x="946" y="705"/>
      <point x="946" y="590" type="curve" smooth="yes"/>
      <point x="946" y="465"/>
      <point x="897" y="350"/>
      <point x="823" y="275" type="curve" smooth="yes"/>
      <point x="769" y="221"/>
      <point x="703" y="188"/>
      <point x="631" y="188" type="curve" smooth="yes"/>
      <point x="564" y="188"/>
      <point x="502" y="202"/>
      <point x="434" y="238" type="curve"/>
    </contour>
    <contour>
      <point x="445" y="1585" type="line"/>
      <point x="445" y="1439"/>
      <point x="404" y="1242"/>
      <point x="367" y="1095" type="curve" smooth="yes"/>
      <point x="110" y="64" type="line"/>
      <point x="252" y="16"/>
      <point x="400" y="-25"/>
      <point x="593" y="-25" type="curve" smooth="yes"/>
      <point x="727" y="-25"/>
      <point x="845" y="19"/>
      <point x="942" y="91" type="curve" smooth="yes"/>
      <point x="1122" y="224"/>
      <point x="1229" y="453"/>
      <point x="1229" y="672" type="curve" smooth="yes"/>
      <point x="1229" y="906"/>
      <point x="1138" y="1030"/>
      <point x="985" y="1030" type="curve" smooth="yes"/>
      <point x="822" y="1030"/>
      <point x="684" y="906"/>
      <point x="562" y="756" type="curve"/>
      <point x="646" y="1095" type="line" smooth="yes"/>
      <point x="686" y="1255"/>
      <point x="725" y="1474"/>
      <point x="725" y="1585" type="curve"/>
    </contour>
  </outline>
</glyph>
<glyph name="LtnSmE" format="2">
  <advance width="1087"/>
  <unicode hex="0065"/>
  <anchor x="509" y="0" name="H"/>
  <anchor x="555" y="-100" name="L"/>
  <anchor x="840" y="0" name="O"/>
  <anchor x="1320" y="1000" name="R"/>
  <anchor x="752" y="1100" name="U"/>
  <outline>
    <contour>
      <point x="1013" y="303" type="line"/>
      <point x="871" y="230"/>
      <point x="739" y="198"/>
      <point x="608" y="198" type="curve" smooth="yes"/>
      <point x="459" y="198"/>
      <point x="401" y="297"/>
      <point x="401" y="428" type="curve" smooth="yes"/>
      <point x="401" y="683"/>
      <point x="552" y="822"/>
      <point x="713" y="822" type="curve" smooth="yes"/>
      <point x="811" y="822"/>
      <point x="869" y="782"/>
      <point x="869" y="720" type="curve" smooth="yes"/>
      <point x="869" y="635"/>
      <point x="777" y="580"/>
      <point x="533" y="580" type="curve" smooth="yes"/>
      <point x="461" y="580"/>
      <point x="385" y="589"/>
      <point x="283" y="610" type="curve"/>
      <point x="283" y="437" type="line"/>
      <point x="353" y="422"/>
      <point x="487" y="413"/>
      <point x="569" y="413" type="curve" smooth="yes"/>
      <point x="935" y="413"/>
      <point x="1125" y="583"/>
      <point x="1125" y="774" type="curve" smooth="yes"/>
      <point x="1125" y="922"/>
      <point x="993" y="1030"/>
      <point x="769" y="1030" type="curve" smooth="yes"/>
      <point x="435" y="1030"/>
      <point x="148" y="775"/>
      <point x="148" y="388" type="curve" smooth="yes"/>
      <point x="148" y="135"/>
      <point x="332" y="-25"/>
      <point x="556" y="-25" type="curve" smooth="yes"/>
      <point x="712" y="-25"/>
      <point x="835" y="2"/>
      <point x="997" y="74" type="curve"/>
    </contour>
  </outline>
</glyph>
<glyph name="LtnSmJ" format="2">
  <advance width="695"/>
  <unicode hex="006A"/>
  <anchor x="-45" y="-500" name="L"/>
  <anchor x="565" y="1100" name="U"/>
  <outline>
    <contour>
      <point x="361" y="1010" type="line"/>
      <point x="361" y="866"/>
      <point x="284" y="395"/>
      <point x="205" y="87" type="curve" smooth="yes"/>
      <point x="148" y="-136"/>
      <point x="54" y="-221"/>
      <point x="-56" y="-221" type="curve" smooth="yes"/>
      <point x="-137" y="-221"/>
      <point x="-217" y="-187"/>
      <point x="-252" y="-150" type="curve"/>
      <point x="-355" y="-385" type="line"/>
      <point x="-321" y="-417"/>
      <point x="-172" y="-465"/>
      <point x="-79" y="-465" type="curve" smooth="yes"/>
      <point x="170" y="-465"/>
      <point x="388" y="-295"/>
      <point x="481" y="75" type="curve" smooth="yes"/>
      <point x="501" y="157"/>
      <point x="646" y="882"/>
      <point x="646" y="1010" type="curve"/>
    </contour>
    <contour>
      <point x="395" y="1341" type="curve" smooth="yes"/>
      <point x="395" y="1259"/>
      <point x="453" y="1197"/>
      <point x="539" y="1197" type="curve" smooth="yes"/>
      <point x="659" y="1197"/>
      <point x="750" y="1292"/>
      <point x="750" y="1403" type="curve" smooth="yes"/>
      <point x="750" y="1483"/>
      <point x="692" y="1544"/>
      <point x="605" y="1544" type="curve" smooth="yes"/>
      <point x="487" y="1544"/>
      <point x="395" y="1451"/>
    </contour>
  </outline>
</glyph>
<glyph name="LtnSmK" format="2">
  <advance width="1209"/>
  <unicode hex="006B"/>
  <anchor x="880" y="0" name="H"/>
  <anchor x="600" y="-100" name="L"/>
  <anchor x="1330" y="1000" name="R"/>
  <anchor x="943" y="1635" name="U"/>
  <outline>
    <contour>
      <point x="964" y="1010" type="line"/>
      <point x="920" y="864"/>
      <point x="682" y="702"/>
      <point x="483" y="576" type="curve"/>
      <point x="676" y="518" type="line"/>
      <point x="915" y="662"/>
      <point x="1289" y="867"/>
      <point x="1289" y="1010" type="curve"/>
    </contour>
    <contour>
      <point x="1168" y="0" type="line"/>
      <point x="992" y="302"/>
      <point x="856" y="620"/>
      <point x="633" y="620" type="curve"/>
      <point x="442" y="529" type="line"/>
      <point x="606" y="529"/>
      <point x="722" y="252"/>
      <point x="831" y="0" type="curve"/>
    </contour>
    <contour>
      <point x="394" y="0" type="line"/>
      <point x="669" y="1105" type="line" smooth="yes"/>
      <point x="713" y="1280"/>
      <point x="744" y="1497"/>
      <point x="744" y="1585" type="curve"/>
      <point x="462" y="1585" type="line"/>
      <point x="462" y="1471"/>
      <point x="431" y="1274"/>
      <point x="393" y="1122" type="curve" smooth="yes"/>
      <point x="345" y="928"/>
      <point x="115" y="0"/>
      <point x="115" y="0" type="curve"/>
    </contour>
  </outline>
</glyph>
<glyph name="LtnSmM" format="2">
  <advance width="1770"/>
  <unicode hex="006D"/>
  <anchor x="830" y="0" name="H"/>
  <anchor x="805" y="-100" name="L"/>
  <anchor x="1105" y="1100" name="U"/>
  <outline>
    <contour>
      <point x="1609" y="0" type="line"/>
      <point x="1604" y="29"/>
      <point x="1602" y="60"/>
      <point x="1602" y="90" type="curve" smooth="yes"/>
      <point x="1602" y="136"/>
      <point x="1606" y="181"/>
      <point x="1613" y="228" type="curve" smooth="yes"/>
      <point x="1628" y="333"/>
      <point x="1747" y="670"/>
      <point x="1747" y="822" type="curve" smooth="yes"/>
      <point x="1747" y="958"/>
      <point x="1681" y="1030"/>
      <point x="1547" y="1030" type="curve" smooth="yes"/>
      <point x="1391" y="1030"/>
      <point x="1227" y="876"/>
      <point x="1120" y="705" type="curve"/>
      <point x="1125" y="738"/>
      <point x="1127" y="769"/>
      <point x="1127" y="798" type="curve" smooth="yes"/>
      <point x="1127" y="944"/>
      <point x="1067" y="1030"/>
      <point x="941" y="1030" type="curve" smooth="yes"/>
      <point x="815" y="1030"/>
      <point x="664" y="911"/>
      <point x="537" y="715" type="curve"/>
      <point x="553" y="840"/>
      <point x="556" y="911"/>
      <point x="556" y="955" type="curve" smooth="yes"/>
      <point x="556" y="981"/>
      <point x="554" y="998"/>
      <point x="551" y="1010" type="curve"/>
      <point x="291" y="1010" type="line"/>
      <point x="293" y="999"/>
      <point x="294" y="975"/>
      <point x="294" y="942" type="curve" smooth="yes"/>
      <point x="294" y="855"/>
      <point x="286" y="710"/>
      <point x="261" y="609" type="curve" smooth="yes"/>
      <point x="110" y="0" type="line"/>
      <point x="390" y="0" type="line"/>
      <point x="479" y="370" type="line"/>
      <point x="541" y="552"/>
      <point x="711" y="787"/>
      <point x="791" y="787" type="curve" smooth="yes"/>
      <point x="843" y="787"/>
      <point x="857" y="741"/>
      <point x="857" y="688" type="curve" smooth="yes"/>
      <point x="857" y="625"/>
      <point x="832" y="535"/>
      <point x="819" y="483" type="curve" smooth="yes"/>
      <point x="695" y="0" type="line"/>
      <point x="975" y="0" type="line"/>
      <point x="1067" y="370" type="line"/>
      <point x="1139" y="556"/>
      <point x="1300" y="787"/>
      <point x="1381" y="787" type="curve" smooth="yes"/>
      <point x="1434" y="787"/>
      <point x="1450" y="762"/>
      <point x="1450" y="706" type="curve" smooth="yes"/>
      <point x="1450" y="592"/>
      <point x="1350" y="331"/>
      <point x="1330" y="205" type="curve" smooth="yes"/>
      <point x="1324" y="168"/>
      <point x="1321" y="132"/>
      <point x="1321" y="95" type="curve" smooth="yes"/>
      <point x="1321" y="63"/>
      <point x="1323" y="31"/>
      <point x="1329" y="0" type="curve"/>
    </contour>
  </outline>
</glyph>
<glyph name="LtnSmP" format="2">
  <advance width="1272"/>
  <unicode hex="0070"/>
  <anchor x="121" y="-435" name="H"/>
  <anchor x="555" y="-500" name="L"/>
  <anchor x="1425" y="1000" name="R"/>
  <anchor x="855" y="1100" name="U"/>
  <outline>
    <contour>
      <point x="523" y="500" type="line"/>
      <point x="605" y="650"/>
      <point x="765" y="794"/>
      <point x="854" y="794" type="curve" smooth="yes"/>
      <point x="932" y="794"/>
      <point x="975" y="719"/>
      <point x="975" y="609" type="curve" smooth="yes"/>
      <point x="975" y="478"/>
      <point x="924" y="334"/>
      <point x="823" y="258" type="curve" smooth="yes"/>
      <point x="778" y="224"/>
      <point x="723" y="204"/>
      <point x="658" y="204" type="curve" smooth="yes"/>
      <point x="589" y="204"/>
      <point x="517" y="243"/>
      <point x="473" y="297" type="curve"/>
    </contour>
    <contour>
      <point x="300" y="1010" type="line"/>
      <point x="300" y="962" type="line" smooth="yes"/>
      <point x="300" y="859"/>
      <point x="290" y="685"/>
      <point x="271" y="609" type="curve" smooth="yes"/>
      <point x="75" y="-180" type="line" smooth="yes"/>
      <point x="49" y="-286"/>
      <point x="25" y="-403"/>
      <point x="25" y="-485" type="curve"/>
      <point x="314" y="-485" type="line"/>
      <point x="314" y="-393"/>
      <point x="328" y="-287"/>
      <point x="362" y="-149" type="curve" smooth="yes"/>
      <point x="415" y="64" type="line"/>
      <point x="495" y="10"/>
      <point x="562" y="-25"/>
      <point x="667" y="-25" type="curve" smooth="yes"/>
      <point x="750" y="-25"/>
      <point x="833" y="-2"/>
      <point x="909" y="40" type="curve" smooth="yes"/>
      <point x="1112" y="152"/>
      <point x="1267" y="398"/>
      <point x="1267" y="685" type="curve" smooth="yes"/>
      <point x="1267" y="884"/>
      <point x="1176" y="1030"/>
      <point x="1004" y="1030" type="curve" smooth="yes"/>
      <point x="849" y="1030"/>
      <point x="677" y="901"/>
      <point x="565" y="752" type="curve"/>
      <point x="574" y="808"/>
      <point x="579" y="875"/>
      <point x="579" y="933" type="curve" smooth="yes"/>
      <point x="579" y="962"/>
      <point x="578" y="988"/>
      <point x="575" y="1010" type="curve"/>
    </contour>
  </outline>
</glyph>
<glyph name="LtnSmT" format="2">
  <advance width="900"/>
  <unicode hex="0074"/>
  <anchor x="470" y="0" name="H"/>
  <anchor x="520" y="-100" name="L"/>
  <anchor x="1075" y="1000" name="R"/>
  <anchor x="640" y="1360" name="U"/>
  <outline>
    <contour>
      <point x="831" y="278" type="line"/>
      <point x="740" y="230"/>
      <point x="670" y="204"/>
      <point x="619" y="204" type="curve" smooth="yes"/>
      <point x="556" y="204"/>
      <point x="536" y="250"/>
      <point x="536" y="318" type="curve" smooth="yes"/>
      <point x="536" y="347"/>
      <point x="539" y="380"/>
      <point x="545" y="415" type="curve" smooth="yes"/>
      <point x="567" y="549"/>
      <point x="700" y="1039"/>
      <point x="767" y="1307" type="curve"/>
      <point x="487" y="1307" type="line"/>
      <point x="419" y="1038"/>
      <point x="265" y="471"/>
      <point x="243" y="328" type="curve" smooth="yes"/>
      <point x="239" y="302"/>
      <point x="237" y="277"/>
      <point x="237" y="253" type="curve" smooth="yes"/>
      <point x="237" y="73"/>
      <point x="351" y="-25"/>
      <point x="518" y="-25" type="curve" smooth="yes"/>
      <point x="590" y="-25"/>
      <point x="703" y="-4"/>
      <point x="812" y="55" type="curve"/>
    </contour>
    <contour>
      <point x="945" y="797" type="line"/>
      <point x="995" y="995" type="line"/>
      <point x="220" y="995" type="line"/>
      <point x="170" y="797" type="line"/>
    </contour>
  </outline>
</glyph>
<glyph name="CombGrave" format="2">
  <unicode hex="0300"/>
  <anchor x="-241" y="1635" name="U"/>
  <anchor x="-415" y="1100" name="_U"/>
  <outline>
    <contour>
      <point x="-725" y="1584" type="line"/>
      <point x="-403" y="1188" type="line"/>
      <point x="-173" y="1188" type="line"/>
      <point x="-395" y="1584" type="line"/>
    </contour>
  </outline>
</glyph>
